<?xml version="1.0" encoding="UTF-8"?>
<!DOCTYPE svg PUBLIC "-//W3C//DTD SVG 1.1//EN" "http://www.w3.org/Graphics/SVG/1.1/DTD/svg11.dtd">
<svg xmlns="http://www.w3.org/2000/svg" version="1.1" width="474px" height="389px" style="shape-rendering:geometricPrecision; text-rendering:geometricPrecision; image-rendering:optimizeQuality; fill-rule:evenodd; clip-rule:evenodd" xmlns:xlink="http://www.w3.org/1999/xlink">
<g><path style="opacity:1" fill="#fcfcfc" d="M -0.5,-0.5 C 60.8333,-0.5 122.167,-0.5 183.5,-0.5C 170.76,3.00069 158.093,7.50069 145.5,13C 144.619,13.7083 143.953,14.5416 143.5,15.5C 139.5,17.1667 135.5,18.8333 131.5,20.5C 131.657,19.1266 131.49,17.7932 131,16.5C 126.582,12.7533 122.916,8.41993 120,3.5C 118.168,7.8661 118.334,12.3661 120.5,17C 120.167,17.8333 119.833,18.6667 119.5,19.5C 116.849,17.3501 114.349,15.0168 112,12.5C 111.593,18.6797 113.926,24.013 119,28.5C 119.483,29.448 119.649,30.448 119.5,31.5C 115.367,32.0515 112.7,34.3848 111.5,38.5C 109.805,39.1744 108.138,39.8411 106.5,40.5C 105.833,40.8333 105.167,41.1667 104.5,41.5C 101.729,41.4207 99.0627,41.9207 96.5,43C 98.5,43.3333 100.5,43.6667 102.5,44C 100.405,44.5556 100.238,45.0556 102,45.5C 103.44,44.8524 104.94,44.5191 106.5,44.5C 102.111,49.2422 98.4442,54.5756 95.5,60.5C 95.5,60.8333 95.5,61.1667 95.5,61.5C 93.8079,63.2048 92.4746,65.2048 91.5,67.5C 90.209,67.2627 89.209,67.596 88.5,68.5C 86.4735,70.8648 84.8068,73.5314 83.5,76.5C 80.2471,78.1123 78.0804,77.1123 77,73.5C 76.7221,69.8061 76.7221,66.1394 77,62.5C 75.1653,60.5506 73.9986,58.2173 73.5,55.5C 73.1667,56 72.8333,56.5 72.5,57C 73.8224,66.2599 75.3224,75.4266 77,84.5C 77.9383,87.2565 79.4383,89.5899 81.5,91.5C 80.6766,94.4606 80.01,97.4606 79.5,100.5C 78.2101,101.058 77.3768,102.058 77,103.5C 77.0581,109.384 76.2248,115.05 74.5,120.5C 74.6236,121.107 74.9569,121.44 75.5,121.5C 75.5,122.167 75.8333,122.5 76.5,122.5C 76.3337,129.508 76.5004,136.508 77,143.5C 77.1216,145.437 77.955,146.77 79.5,147.5C 79.4571,150.91 79.9571,154.243 81,157.5C 82.2389,162.509 84.0722,167.176 86.5,171.5C 88.1739,178.512 91.1739,184.846 95.5,190.5C 95.5,190.833 95.5,191.167 95.5,191.5C 97.9341,195.382 100.601,199.048 103.5,202.5C 104.609,206.602 107.275,208.269 111.5,207.5C 116.989,206.644 121.656,204.31 125.5,200.5C 126.492,200.672 127.158,200.338 127.5,199.5C 137.107,195.203 145.441,189.203 152.5,181.5C 152.833,181.5 153.167,181.5 153.5,181.5C 159.232,182.329 164.232,180.995 168.5,177.5C 172.539,176.947 175.539,174.947 177.5,171.5C 183.734,167.224 190.067,163.224 196.5,159.5C 198.777,158.551 200.777,157.218 202.5,155.5C 207.365,151.905 212.365,148.572 217.5,145.5C 218.5,145.5 219.5,145.5 220.5,145.5C 228.56,143.66 234.893,145.993 239.5,152.5C 239.414,153.496 239.748,154.329 240.5,155C 239.207,155.49 237.873,155.657 236.5,155.5C 236.657,156.873 236.49,158.207 236,159.5C 233.974,159.915 232.474,160.915 231.5,162.5C 232.6,163.605 233.267,164.938 233.5,166.5C 233.649,167.552 233.483,168.552 233,169.5C 232.346,168.304 231.846,168.304 231.5,169.5C 233.533,171.452 233.866,173.618 232.5,176C 234.259,177.008 235.426,178.508 236,180.5C 237.156,179.007 237.99,179.174 238.5,181C 236.706,182.56 235.206,182.06 234,179.5C 233.583,180.756 232.75,181.423 231.5,181.5C 230.434,180.308 229.601,180.641 229,182.5C 226.003,177.916 222.17,177.249 217.5,180.5C 215.167,180.5 212.833,180.5 210.5,180.5C 210.545,183.077 209.545,185.077 207.5,186.5C 202.364,188.902 197.364,191.568 192.5,194.5C 191.432,192.813 191.599,191.146 193,189.5C 196.315,188.397 199.149,186.564 201.5,184C 195.902,185.97 190.569,188.803 185.5,192.5C 185.167,192.333 184.833,192.167 184.5,192C 195.366,184.604 195.033,183.937 183.5,190C 181.167,192.333 178.833,194.667 176.5,197C 164.67,203.167 152.337,208.167 139.5,212C 119.781,215.107 100.115,218.607 80.5,222.5C 76.6479,220.831 72.6479,220.331 68.5,221C 48.4888,226.003 28.4888,231.003 8.5,236C 5.80738,238.993 2.80738,241.493 -0.5,243.5C -0.5,162.167 -0.5,80.8333 -0.5,-0.5 Z"/></g>
<g><path style="opacity:1" fill="#fdfdfd" d="M 223.5,-0.5 C 306.833,-0.5 390.167,-0.5 473.5,-0.5C 473.5,81.5 473.5,163.5 473.5,245.5C 426.937,236.051 381.937,221.717 338.5,202.5C 338.158,201.662 337.492,201.328 336.5,201.5C 336.5,200.833 336.5,200.167 336.5,199.5C 336.884,197.335 336.217,195.668 334.5,194.5C 333.1,196.396 331.267,197.729 329,198.5C 325.853,197.338 322.686,196.338 319.5,195.5C 317.167,194.167 314.833,192.833 312.5,191.5C 312.5,190.5 312.5,189.5 312.5,188.5C 316.731,181.933 320.064,174.933 322.5,167.5C 323.338,167.158 323.672,166.492 323.5,165.5C 324.497,165.53 325.164,165.03 325.5,164C 326.445,160.699 327.611,157.533 329,154.5C 329.499,150.848 329.665,147.182 329.5,143.5C 329.5,140.833 329.5,138.167 329.5,135.5C 330.659,125.008 330.825,114.341 330,103.5C 329.155,101.389 328.322,99.3885 327.5,97.5C 325.325,91.6431 323.325,85.6431 321.5,79.5C 321.813,76.7531 321.48,74.0865 320.5,71.5C 318.578,69.9969 317.412,67.9969 317,65.5C 316.329,64.7476 315.496,64.4142 314.5,64.5C 309.576,56.3339 303.909,48.6672 297.5,41.5C 294.5,37.8333 291.167,34.5 287.5,31.5C 281.066,25.7761 274.066,20.7761 266.5,16.5C 263.021,14.5969 259.354,12.9302 255.5,11.5C 246.462,6.71113 236.796,3.71113 226.5,2.5C 225.1,1.89992 224.1,0.899922 223.5,-0.5 Z"/></g>
<g><path style="opacity:1" fill="#af3f41" d="M 183.5,-0.5 C 185.167,-0.5 186.833,-0.5 188.5,-0.5C 188.279,0.734849 187.612,1.73485 186.5,2.5C 180.839,3.3632 175.172,4.19654 169.5,5C 160.576,8.31045 151.909,11.8104 143.5,15.5C 143.953,14.5416 144.619,13.7083 145.5,13C 158.093,7.50069 170.76,3.00069 183.5,-0.5 Z"/></g>
<g><path style="opacity:1" fill="#cf2128" d="M 188.5,-0.5 C 200.167,-0.5 211.833,-0.5 223.5,-0.5C 224.1,0.899922 225.1,1.89992 226.5,2.5C 227.29,3.79423 228.29,4.9609 229.5,6C 232.833,6.33333 236.167,6.66667 239.5,7C 244.853,8.69824 250.186,10.1982 255.5,11.5C 259.354,12.9302 263.021,14.5969 266.5,16.5C 266.414,17.4959 266.748,18.3292 267.5,19C 273.693,22.2623 279.36,26.2623 284.5,31C 285.448,31.4828 286.448,31.6495 287.5,31.5C 287.5,32.8333 287.5,34.1667 287.5,35.5C 288.552,35.3505 289.552,35.5172 290.5,36C 292.441,38.4536 294.775,40.287 297.5,41.5C 303.909,48.6672 309.576,56.3339 314.5,64.5C 315.973,67.4469 317.473,70.4469 319,73.5C 319.495,75.4727 319.662,77.4727 319.5,79.5C 321.114,83.2944 322.614,87.2944 324,91.5C 325.001,98.4148 326.501,105.081 328.5,111.5C 329.492,119.316 329.826,127.316 329.5,135.5C 329.5,138.167 329.5,140.833 329.5,143.5C 329.167,143.5 328.833,143.5 328.5,143.5C 326.52,144.848 325.353,146.848 325,149.5C 324.625,155.589 323.792,161.589 322.5,167.5C 320.064,174.933 316.731,181.933 312.5,188.5C 307.673,188.779 303.007,188.113 298.5,186.5C 292.727,180.776 285.727,177.11 277.5,175.5C 277.67,174.178 277.337,173.011 276.5,172C 272.82,171.652 269.486,170.485 266.5,168.5C 256.665,165.421 248.331,160.088 241.5,152.5C 236.384,144.71 229.384,142.377 220.5,145.5C 219.5,145.5 218.5,145.5 217.5,145.5C 216.127,145.343 214.793,145.51 213.5,146C 210.629,147.935 207.629,149.601 204.5,151C 202.963,152.11 202.297,153.61 202.5,155.5C 200.777,157.218 198.777,158.551 196.5,159.5C 194.712,159.215 193.045,159.548 191.5,160.5C 187.47,163.515 183.137,166.015 178.5,168C 177.663,169.011 177.33,170.178 177.5,171.5C 175.539,174.947 172.539,176.947 168.5,177.5C 163.96,178.82 159.294,179.653 154.5,180C 153.944,180.383 153.611,180.883 153.5,181.5C 153.167,181.5 152.833,181.5 152.5,181.5C 148.631,183.601 144.631,185.434 140.5,187C 138.431,191.902 134.765,194.736 129.5,195.5C 128.295,196.577 127.628,197.91 127.5,199.5C 127.158,200.338 126.492,200.672 125.5,200.5C 119.904,201.298 115.237,203.631 111.5,207.5C 107.275,208.269 104.609,206.602 103.5,202.5C 101.892,199.2 100.225,195.867 98.5,192.5C 97.675,191.614 96.675,191.281 95.5,191.5C 95.5,191.167 95.5,190.833 95.5,190.5C 95.6567,189.127 95.49,187.793 95,186.5C 91.6049,181.698 88.7716,176.698 86.5,171.5C 84.0722,167.176 82.2389,162.509 81,157.5C 79.9571,154.243 79.4571,150.91 79.5,147.5C 79.0371,144.518 78.7038,141.518 78.5,138.5C 78.0574,132.709 78.3908,129.042 79.5,127.5C 80.5,127.5 81.5,127.5 82.5,127.5C 82.8333,127.5 83.1667,127.5 83.5,127.5C 87.6457,132.03 90.979,137.197 93.5,143C 97.7529,143.551 101.086,145.551 103.5,149C 104.745,149.791 106.078,150.291 107.5,150.5C 108.833,150.833 110.167,151.167 111.5,151.5C 115.012,152.941 118.679,154.441 122.5,156C 129.074,156.349 135.407,157.516 141.5,159.5C 142.167,159.5 142.833,159.5 143.5,159.5C 144.425,161.884 146.258,162.884 149,162.5C 150.728,162.546 152.228,162.046 153.5,161C 152.833,160.667 152.167,160.333 151.5,160C 153.134,159.506 154.801,159.34 156.5,159.5C 157.5,159.5 158.5,159.5 159.5,159.5C 159.773,157.549 159.107,156.049 157.5,155C 151.04,154.769 144.706,153.936 138.5,152.5C 136.345,148.861 134.178,145.194 132,141.5C 130.556,139.845 128.722,139.178 126.5,139.5C 126.833,137.5 127.167,135.5 127.5,133.5C 127.5,132.833 127.5,132.167 127.5,131.5C 128.978,131.762 130.311,131.429 131.5,130.5C 131.964,126.962 133.464,123.962 136,121.5C 136.808,117.973 136.641,114.64 135.5,111.5C 135.167,111.5 134.833,111.5 134.5,111.5C 133.022,111.238 131.689,111.571 130.5,112.5C 128.973,114.939 126.973,116.939 124.5,118.5C 124.051,115.956 124.051,113.29 124.5,110.5C 124.577,106.785 124.244,103.119 123.5,99.5C 118.574,97.9932 115.908,99.9932 115.5,105.5C 114.476,106.853 113.143,107.52 111.5,107.5C 111.649,108.552 111.483,109.552 111,110.5C 109.506,109.253 108.006,109.253 106.5,110.5C 107.904,112.547 107.571,114.213 105.5,115.5C 104.504,115.414 103.671,115.748 103,116.5C 102.825,120.211 102.325,123.878 101.5,127.5C 101.258,123.907 99.591,121.241 96.5,119.5C 96.1667,120.167 95.8333,120.833 95.5,121.5C 96.7175,123.217 97.7175,125.05 98.5,127C 95.5341,131.93 93.5341,131.43 92.5,125.5C 91.675,124.614 90.675,124.281 89.5,124.5C 89.1667,123.833 88.8333,123.167 88.5,122.5C 87.7659,121.292 87.4326,119.959 87.5,118.5C 89.8568,118.663 92.1902,118.497 94.5,118C 95.0712,116.795 95.7379,115.628 96.5,114.5C 98.326,114.92 100.326,114.92 102.5,114.5C 101.691,110.445 99.3579,107.779 95.5,106.5C 95.1199,103.255 93.9532,100.255 92,97.5C 91.3333,94.1667 91.3333,90.8333 92,87.5C 94.7405,86.7178 97.5738,86.2178 100.5,86C 101.373,84.955 102.373,84.1217 103.5,83.5C 105.75,83.8186 107.75,83.3186 109.5,82C 108.577,79.9592 108.244,77.7925 108.5,75.5C 109.5,75.5 110.5,75.5 111.5,75.5C 111.5,74.1667 111.5,72.8333 111.5,71.5C 109.801,71.6602 108.134,71.4935 106.5,71C 108.278,68.8646 108.945,66.3646 108.5,63.5C 104.167,64.1667 99.8333,64.8333 95.5,65.5C 95.5,64.1667 95.5,62.8333 95.5,61.5C 95.5,61.1667 95.5,60.8333 95.5,60.5C 98.4728,57.9926 101.473,55.326 104.5,52.5C 105.452,50.9547 105.785,49.288 105.5,47.5C 106.5,47.5 107.5,47.5 108.5,47.5C 108.5,46.5 108.5,45.5 108.5,44.5C 110.179,44.7148 111.179,44.0481 111.5,42.5C 118.507,41.3272 125.507,40.1605 132.5,39C 133.939,38.0094 134.939,36.676 135.5,35C 137.134,34.5065 138.801,34.3398 140.5,34.5C 140.5,35.5 140.5,36.5 140.5,37.5C 141.5,37.5 142.5,37.5 143.5,37.5C 143.5,36.1667 143.5,34.8333 143.5,33.5C 141.897,33.6882 140.563,33.1882 139.5,32C 141.019,30.6487 142.352,29.1487 143.5,27.5C 145.078,26.7022 146.744,26.2022 148.5,26C 149.975,23.6908 151.642,21.5241 153.5,19.5C 151.058,18.0056 148.391,17.0056 145.5,16.5C 144.056,17.981 143.389,17.6477 143.5,15.5C 151.909,11.8104 160.576,8.31045 169.5,5C 175.172,4.19654 180.839,3.3632 186.5,2.5C 187.612,1.73485 188.279,0.734849 188.5,-0.5 Z"/></g>
<g><path style="opacity:1" fill="#b32b30" d="M 226.5,2.5 C 236.796,3.71113 246.462,6.71113 255.5,11.5C 250.186,10.1982 244.853,8.69824 239.5,7C 236.167,6.66667 232.833,6.33333 229.5,6C 228.29,4.9609 227.29,3.79423 226.5,2.5 Z"/></g>
<g><path style="opacity:1" fill="#191212" d="M 131.5,20.5 C 130.597,23.3915 130.264,26.3915 130.5,29.5C 131.5,29.5 132.5,29.5 133.5,29.5C 134.091,30.1515 134.757,30.8182 135.5,31.5C 132.993,33.0684 130.993,35.0684 129.5,37.5C 128.833,37.5 128.167,37.5 127.5,37.5C 125.143,37.3367 122.81,37.5034 120.5,38C 118.68,38.2004 117.347,39.0337 116.5,40.5C 115.5,40.5 114.5,40.5 113.5,40.5C 110.921,40.8652 108.588,40.8652 106.5,40.5C 108.138,39.8411 109.805,39.1744 111.5,38.5C 112.7,34.3848 115.367,32.0515 119.5,31.5C 119.649,30.448 119.483,29.448 119,28.5C 113.926,24.013 111.593,18.6797 112,12.5C 114.349,15.0168 116.849,17.3501 119.5,19.5C 119.833,18.6667 120.167,17.8333 120.5,17C 118.334,12.3661 118.168,7.8661 120,3.5C 122.916,8.41993 126.582,12.7533 131,16.5C 131.49,17.7932 131.657,19.1266 131.5,20.5 Z"/></g>
<g><path style="opacity:1" fill="#b6282e" d="M 143.5,15.5 C 143.389,17.6477 144.056,17.981 145.5,16.5C 148.391,17.0056 151.058,18.0056 153.5,19.5C 151.642,21.5241 149.975,23.6908 148.5,26C 146.744,26.2022 145.078,26.7022 143.5,27.5C 142.352,29.1487 141.019,30.6487 139.5,32C 140.563,33.1882 141.897,33.6882 143.5,33.5C 143.5,34.8333 143.5,36.1667 143.5,37.5C 142.5,37.5 141.5,37.5 140.5,37.5C 140.5,36.5 140.5,35.5 140.5,34.5C 138.801,34.3398 137.134,34.5065 135.5,35C 134.939,36.676 133.939,38.0094 132.5,39C 125.507,40.1605 118.507,41.3272 111.5,42.5C 112.167,41.8333 112.833,41.1667 113.5,40.5C 114.5,40.5 115.5,40.5 116.5,40.5C 120.238,39.3871 123.904,38.3871 127.5,37.5C 128.167,37.5 128.833,37.5 129.5,37.5C 135.312,35.1726 139.645,31.1726 142.5,25.5C 145.804,25.3223 147.471,23.6557 147.5,20.5C 142.458,19.5049 140.125,21.5049 140.5,26.5C 138.005,27.1989 135.672,28.1989 133.5,29.5C 132.5,29.5 131.5,29.5 130.5,29.5C 130.264,26.3915 130.597,23.3915 131.5,20.5C 135.5,18.8333 139.5,17.1667 143.5,15.5 Z"/></g>
<g><path style="opacity:1" fill="#640f15" d="M 129.5,37.5 C 130.993,35.0684 132.993,33.0684 135.5,31.5C 134.757,30.8182 134.091,30.1515 133.5,29.5C 135.672,28.1989 138.005,27.1989 140.5,26.5C 140.125,21.5049 142.458,19.5049 147.5,20.5C 147.471,23.6557 145.804,25.3223 142.5,25.5C 139.645,31.1726 135.312,35.1726 129.5,37.5 Z"/></g>
<g><path style="opacity:1" fill="#a63740" d="M 266.5,16.5 C 274.066,20.7761 281.066,25.7761 287.5,31.5C 286.448,31.6495 285.448,31.4828 284.5,31C 279.36,26.2623 273.693,22.2623 267.5,19C 266.748,18.3292 266.414,17.4959 266.5,16.5 Z"/></g>
<g><path style="opacity:1" fill="#ae3e44" d="M 287.5,31.5 C 291.167,34.5 294.5,37.8333 297.5,41.5C 294.775,40.287 292.441,38.4536 290.5,36C 289.552,35.5172 288.552,35.3505 287.5,35.5C 287.5,34.1667 287.5,32.8333 287.5,31.5 Z"/></g>
<g><path style="opacity:1" fill="#4e0608" d="M 127.5,37.5 C 123.904,38.3871 120.238,39.3871 116.5,40.5C 117.347,39.0337 118.68,38.2004 120.5,38C 122.81,37.5034 125.143,37.3367 127.5,37.5 Z"/></g>
<g><path style="opacity:1" fill="#2b2024" d="M 104.5,41.5 C 104.782,42.7777 105.449,43.7777 106.5,44.5C 104.94,44.5191 103.44,44.8524 102,45.5C 100.238,45.0556 100.405,44.5556 102.5,44C 100.5,43.6667 98.5,43.3333 96.5,43C 99.0627,41.9207 101.729,41.4207 104.5,41.5 Z"/></g>
<g><path style="opacity:1" fill="#a33839" d="M 106.5,40.5 C 108.588,40.8652 110.921,40.8652 113.5,40.5C 112.833,41.1667 112.167,41.8333 111.5,42.5C 111.179,44.0481 110.179,44.7148 108.5,44.5C 108.5,45.5 108.5,46.5 108.5,47.5C 107.5,47.5 106.5,47.5 105.5,47.5C 105.785,49.288 105.452,50.9547 104.5,52.5C 101.473,55.326 98.4728,57.9926 95.5,60.5C 98.4442,54.5756 102.111,49.2422 106.5,44.5C 105.449,43.7777 104.782,42.7777 104.5,41.5C 105.167,41.1667 105.833,40.8333 106.5,40.5 Z"/></g>
<g><path style="opacity:1" fill="#74171e" d="M 95.5,61.5 C 95.5,62.8333 95.5,64.1667 95.5,65.5C 99.0171,66.6203 102.684,66.6203 106.5,65.5C 106.975,68.3126 105.975,70.3126 103.5,71.5C 104.171,70.1529 104.171,68.9862 103.5,68C 99.5138,67.5012 95.5138,67.3345 91.5,67.5C 92.4746,65.2048 93.8079,63.2048 95.5,61.5 Z"/></g>
<g><path style="opacity:1" fill="#f5d3dc" d="M 314.5,64.5 C 315.496,64.4142 316.329,64.7476 317,65.5C 317.412,67.9969 318.578,69.9969 320.5,71.5C 321.48,74.0865 321.813,76.7531 321.5,79.5C 320.833,79.5 320.167,79.5 319.5,79.5C 319.662,77.4727 319.495,75.4727 319,73.5C 317.473,70.4469 315.973,67.4469 314.5,64.5 Z"/></g>
<g><path style="opacity:1" fill="#181213" d="M 88.5,68.5 C 87.6103,70.7819 87.4436,73.1152 88,75.5C 89.0113,76.3366 90.1779,76.67 91.5,76.5C 91.5,77.5 91.5,78.5 91.5,79.5C 89.4727,79.3379 87.4727,79.5045 85.5,80C 87.6234,81.1937 89.9568,81.8603 92.5,82C 91.4293,82.8518 90.4293,83.6851 89.5,84.5C 89.4789,89.4335 89.1456,94.4335 88.5,99.5C 87.8165,99.1373 87.1499,98.8039 86.5,98.5C 84.5734,96.3648 82.9067,94.0314 81.5,91.5C 79.4383,89.5899 77.9383,87.2565 77,84.5C 75.3224,75.4266 73.8224,66.2599 72.5,57C 72.8333,56.5 73.1667,56 73.5,55.5C 73.9986,58.2173 75.1653,60.5506 77,62.5C 76.7221,66.1394 76.7221,69.8061 77,73.5C 78.0804,77.1123 80.2471,78.1123 83.5,76.5C 84.8068,73.5314 86.4735,70.8648 88.5,68.5 Z"/></g>
<g><path style="opacity:1" fill="#1e0d0e" d="M 91.5,67.5 C 95.5138,67.3345 99.5138,67.5012 103.5,68C 104.171,68.9862 104.171,70.1529 103.5,71.5C 103.167,71.5 102.833,71.5 102.5,71.5C 100.442,72.9331 98.1085,73.5997 95.5,73.5C 95.238,74.9778 95.5713,76.3112 96.5,77.5C 99.4757,79.388 102.476,80.0546 105.5,79.5C 104.599,80.2905 103.932,81.2905 103.5,82.5C 100.67,82.6941 98.0037,83.3608 95.5,84.5C 93.5,84.5 91.5,84.5 89.5,84.5C 90.4293,83.6851 91.4293,82.8518 92.5,82C 89.9568,81.8603 87.6234,81.1937 85.5,80C 87.4727,79.5045 89.4727,79.3379 91.5,79.5C 91.5,78.5 91.5,77.5 91.5,76.5C 90.1779,76.67 89.0113,76.3366 88,75.5C 87.4436,73.1152 87.6103,70.7819 88.5,68.5C 89.209,67.596 90.209,67.2627 91.5,67.5 Z"/></g>
<g><path style="opacity:1" fill="#c0272b" d="M 103.5,83.5 C 103.5,83.1667 103.5,82.8333 103.5,82.5C 103.932,81.2905 104.599,80.2905 105.5,79.5C 107.549,79.2942 107.883,78.4609 106.5,77C 104.1,76.8142 101.766,76.3142 99.5,75.5C 100.524,74.1482 101.524,72.8149 102.5,71.5C 102.833,71.5 103.167,71.5 103.5,71.5C 105.975,70.3126 106.975,68.3126 106.5,65.5C 102.684,66.6203 99.0171,66.6203 95.5,65.5C 99.8333,64.8333 104.167,64.1667 108.5,63.5C 108.945,66.3646 108.278,68.8646 106.5,71C 108.134,71.4935 109.801,71.6602 111.5,71.5C 111.5,72.8333 111.5,74.1667 111.5,75.5C 110.5,75.5 109.5,75.5 108.5,75.5C 108.244,77.7925 108.577,79.9592 109.5,82C 107.75,83.3186 105.75,83.8186 103.5,83.5 Z"/></g>
<g><path style="opacity:1" fill="#6e1822" d="M 102.5,71.5 C 101.524,72.8149 100.524,74.1482 99.5,75.5C 101.766,76.3142 104.1,76.8142 106.5,77C 107.883,78.4609 107.549,79.2942 105.5,79.5C 102.476,80.0546 99.4757,79.388 96.5,77.5C 95.5713,76.3112 95.238,74.9778 95.5,73.5C 98.1085,73.5997 100.442,72.9331 102.5,71.5 Z"/></g>
<g><path style="opacity:1" fill="#aa2c34" d="M 103.5,82.5 C 103.5,82.8333 103.5,83.1667 103.5,83.5C 102.373,84.1217 101.373,84.955 100.5,86C 97.5738,86.2178 94.7405,86.7178 92,87.5C 91.3333,90.8333 91.3333,94.1667 92,97.5C 93.9532,100.255 95.1199,103.255 95.5,106.5C 93.5259,104.572 92.0259,102.239 91,99.5C 90.7685,95.4452 90.2685,91.4452 89.5,87.5C 91.2818,86.0159 93.2818,85.0159 95.5,84.5C 98.0037,83.3608 100.67,82.6941 103.5,82.5 Z"/></g>
<g><path style="opacity:1" fill="#a93d40" d="M 319.5,79.5 C 320.167,79.5 320.833,79.5 321.5,79.5C 323.325,85.6431 325.325,91.6431 327.5,97.5C 327.998,102.152 328.331,106.819 328.5,111.5C 326.501,105.081 325.001,98.4148 324,91.5C 322.614,87.2944 321.114,83.2944 319.5,79.5 Z"/></g>
<g><path style="opacity:1" fill="#a93737" d="M 81.5,91.5 C 82.9067,94.0314 84.5734,96.3648 86.5,98.5C 86.5,99.1667 86.5,99.8333 86.5,100.5C 85.5178,99.8592 84.5178,99.1925 83.5,98.5C 82.3578,99.8262 81.0245,100.826 79.5,101.5C 79.5,101.167 79.5,100.833 79.5,100.5C 80.01,97.4606 80.6766,94.4606 81.5,91.5 Z"/></g>
<g><path style="opacity:1" fill="#520c11" d="M 89.5,84.5 C 91.5,84.5 93.5,84.5 95.5,84.5C 93.2818,85.0159 91.2818,86.0159 89.5,87.5C 90.2685,91.4452 90.7685,95.4452 91,99.5C 92.0259,102.239 93.5259,104.572 95.5,106.5C 96.4756,107.815 97.4756,109.148 98.5,110.5C 96.9255,111.631 95.2588,111.798 93.5,111C 90.759,107.659 88.4257,104.159 86.5,100.5C 86.5,99.8333 86.5,99.1667 86.5,98.5C 87.1499,98.8039 87.8165,99.1373 88.5,99.5C 89.1456,94.4335 89.4789,89.4335 89.5,84.5 Z"/></g>
<g><path style="opacity:1" fill="#400b0f" d="M 123.5,99.5 C 124.244,103.119 124.577,106.785 124.5,110.5C 122.517,113.799 121.517,117.466 121.5,121.5C 122.5,121.5 123.5,121.5 124.5,121.5C 121.658,124.218 120.325,123.385 120.5,119C 120.565,116.474 121.232,114.141 122.5,112C 121.883,109.242 121.716,106.409 122,103.5C 118.772,106.065 116.272,109.232 114.5,113C 111.933,114.747 109.266,116.247 106.5,117.5C 111.869,112.46 116.535,106.793 120.5,100.5C 121.325,99.6143 122.325,99.281 123.5,99.5 Z"/></g>
<g><path style="opacity:1" fill="#a22a2e" d="M 123.5,99.5 C 122.325,99.281 121.325,99.6143 120.5,100.5C 116.535,106.793 111.869,112.46 106.5,117.5C 105.84,118.964 105.507,120.631 105.5,122.5C 106.471,126.78 107.137,131.113 107.5,135.5C 103.523,138.005 99.5228,138.005 95.5,135.5C 98.8333,135.833 102.167,136.167 105.5,136.5C 104.465,129.437 104.465,122.437 105.5,115.5C 107.571,114.213 107.904,112.547 106.5,110.5C 108.006,109.253 109.506,109.253 111,110.5C 111.483,109.552 111.649,108.552 111.5,107.5C 113.143,107.52 114.476,106.853 115.5,105.5C 115.908,99.9932 118.574,97.9932 123.5,99.5 Z"/></g>
<g><path style="opacity:1" fill="#f6c9cb" d="M 327.5,97.5 C 328.322,99.3885 329.155,101.389 330,103.5C 330.825,114.341 330.659,125.008 329.5,135.5C 329.826,127.316 329.492,119.316 328.5,111.5C 328.331,106.819 327.998,102.152 327.5,97.5 Z"/></g>
<g><path style="opacity:1" fill="#f6d2d1" d="M 79.5,100.5 C 79.5,100.833 79.5,101.167 79.5,101.5C 79.5,102.167 79.5,102.833 79.5,103.5C 78.6727,109.616 77.3393,115.616 75.5,121.5C 74.9569,121.44 74.6236,121.107 74.5,120.5C 76.2248,115.05 77.0581,109.384 77,103.5C 77.3768,102.058 78.2101,101.058 79.5,100.5 Z"/></g>
<g><path style="opacity:1" fill="#c7222a" d="M 86.5,100.5 C 88.4257,104.159 90.759,107.659 93.5,111C 95.2588,111.798 96.9255,111.631 98.5,110.5C 97.4756,109.148 96.4756,107.815 95.5,106.5C 99.3579,107.779 101.691,110.445 102.5,114.5C 100.326,114.92 98.326,114.92 96.5,114.5C 95.7379,115.628 95.0712,116.795 94.5,118C 92.1902,118.497 89.8568,118.663 87.5,118.5C 87.4326,119.959 87.7659,121.292 88.5,122.5C 85.5701,121.701 82.5701,121.368 79.5,121.5C 79.5,115.5 79.5,109.5 79.5,103.5C 79.5,102.833 79.5,102.167 79.5,101.5C 81.0245,100.826 82.3578,99.8262 83.5,98.5C 84.5178,99.1925 85.5178,99.8592 86.5,100.5 Z"/></g>
<g><path style="opacity:1" fill="#470910" d="M 134.5,111.5 C 134.833,111.5 135.167,111.5 135.5,111.5C 135.665,114.518 135.498,117.518 135,120.5C 132.734,123.367 130.901,126.367 129.5,129.5C 129.201,127.396 129.534,125.396 130.5,123.5C 133.433,121.841 134.1,119.507 132.5,116.5C 131.024,118.571 129.024,119.571 126.5,119.5C 129.527,117.14 132.194,114.473 134.5,111.5 Z"/></g>
<g><path style="opacity:1" fill="#180e0e" d="M 124.5,121.5 C 124.833,120.5 125.5,119.833 126.5,119.5C 129.024,119.571 131.024,118.571 132.5,116.5C 134.1,119.507 133.433,121.841 130.5,123.5C 129.534,125.396 129.201,127.396 129.5,129.5C 128.167,129.5 127.5,130.167 127.5,131.5C 127.5,132.167 127.5,132.833 127.5,133.5C 124.95,133.884 123.617,135.384 123.5,138C 127.492,140.839 130.825,144.339 133.5,148.5C 133.227,150.451 133.893,151.951 135.5,153C 131.033,153.642 127.033,152.642 123.5,150C 120.131,149.337 116.797,149.504 113.5,150.5C 111.149,149.827 108.816,149.16 106.5,148.5C 106.167,147.833 105.833,147.167 105.5,146.5C 104.699,144.958 104.366,143.292 104.5,141.5C 101.843,141.838 99.5098,141.171 97.5,139.5C 100.422,139.101 103.422,138.934 106.5,139C 107.337,137.989 107.67,136.822 107.5,135.5C 107.137,131.113 106.471,126.78 105.5,122.5C 105.507,120.631 105.84,118.964 106.5,117.5C 109.266,116.247 111.933,114.747 114.5,113C 116.272,109.232 118.772,106.065 122,103.5C 121.716,106.409 121.883,109.242 122.5,112C 121.232,114.141 120.565,116.474 120.5,119C 120.325,123.385 121.658,124.218 124.5,121.5 Z"/></g>
<g><path style="opacity:1" fill="#af2f3a" d="M 124.5,110.5 C 124.051,113.29 124.051,115.956 124.5,118.5C 126.973,116.939 128.973,114.939 130.5,112.5C 131.689,111.571 133.022,111.238 134.5,111.5C 132.194,114.473 129.527,117.14 126.5,119.5C 125.5,119.833 124.833,120.5 124.5,121.5C 123.5,121.5 122.5,121.5 121.5,121.5C 121.517,117.466 122.517,113.799 124.5,110.5 Z"/></g>
<g><path style="opacity:1" fill="#922529" d="M 79.5,103.5 C 79.5,109.5 79.5,115.5 79.5,121.5C 82.5701,121.368 85.5701,121.701 88.5,122.5C 88.8333,123.167 89.1667,123.833 89.5,124.5C 86.7531,124.187 84.0865,124.52 81.5,125.5C 81.8627,126.183 82.1961,126.85 82.5,127.5C 81.5,127.5 80.5,127.5 79.5,127.5C 78.3908,129.042 78.0574,132.709 78.5,138.5C 77.8333,133.167 77.1667,127.833 76.5,122.5C 75.8333,122.5 75.5,122.167 75.5,121.5C 77.3393,115.616 78.6727,109.616 79.5,103.5 Z"/></g>
<g><path style="opacity:1" fill="#9c2730" d="M 135.5,111.5 C 136.641,114.64 136.808,117.973 136,121.5C 133.464,123.962 131.964,126.962 131.5,130.5C 130.311,131.429 128.978,131.762 127.5,131.5C 127.5,130.167 128.167,129.5 129.5,129.5C 130.901,126.367 132.734,123.367 135,120.5C 135.498,117.518 135.665,114.518 135.5,111.5 Z"/></g>
<g><path style="opacity:1" fill="#c2262a" d="M 105.5,115.5 C 104.465,122.437 104.465,129.437 105.5,136.5C 102.167,136.167 98.8333,135.833 95.5,135.5C 93.3763,134.969 91.8763,133.635 91,131.5C 90.7096,129.08 90.2096,126.746 89.5,124.5C 90.675,124.281 91.675,124.614 92.5,125.5C 93.5341,131.43 95.5341,131.93 98.5,127C 97.7175,125.05 96.7175,123.217 95.5,121.5C 95.8333,120.833 96.1667,120.167 96.5,119.5C 99.591,121.241 101.258,123.907 101.5,127.5C 102.325,123.878 102.825,120.211 103,116.5C 103.671,115.748 104.504,115.414 105.5,115.5 Z"/></g>
<g><path style="opacity:1" fill="#38090a" d="M 89.5,124.5 C 90.2096,126.746 90.7096,129.08 91,131.5C 91.8763,133.635 93.3763,134.969 95.5,135.5C 99.5228,138.005 103.523,138.005 107.5,135.5C 107.67,136.822 107.337,137.989 106.5,139C 103.422,138.934 100.422,139.101 97.5,139.5C 99.5098,141.171 101.843,141.838 104.5,141.5C 104.366,143.292 104.699,144.958 105.5,146.5C 102.568,144.219 99.2349,142.386 95.5,141C 92.3771,135.711 88.3771,131.211 83.5,127.5C 83.1667,127.5 82.8333,127.5 82.5,127.5C 82.1961,126.85 81.8627,126.183 81.5,125.5C 84.0865,124.52 86.7531,124.187 89.5,124.5 Z"/></g>
<g><path style="opacity:1" fill="#efc2bb" d="M 76.5,122.5 C 77.1667,127.833 77.8333,133.167 78.5,138.5C 78.7038,141.518 79.0371,144.518 79.5,147.5C 77.955,146.77 77.1216,145.437 77,143.5C 76.5004,136.508 76.3337,129.508 76.5,122.5 Z"/></g>
<g><path style="opacity:1" fill="#a12a2d" d="M 127.5,133.5 C 127.167,135.5 126.833,137.5 126.5,139.5C 128.722,139.178 130.556,139.845 132,141.5C 134.178,145.194 136.345,148.861 138.5,152.5C 136.427,151.7 134.76,150.367 133.5,148.5C 130.825,144.339 127.492,140.839 123.5,138C 123.617,135.384 124.95,133.884 127.5,133.5 Z"/></g>
<g><path style="opacity:1" fill="#b95055" d="M 220.5,145.5 C 229.384,142.377 236.384,144.71 241.5,152.5C 240.833,152.5 240.167,152.5 239.5,152.5C 234.893,145.993 228.56,143.66 220.5,145.5 Z"/></g>
<g><path style="opacity:1" fill="#a0272d" d="M 83.5,127.5 C 88.3771,131.211 92.3771,135.711 95.5,141C 99.2349,142.386 102.568,144.219 105.5,146.5C 105.833,147.167 106.167,147.833 106.5,148.5C 106.833,149.167 107.167,149.833 107.5,150.5C 106.078,150.291 104.745,149.791 103.5,149C 101.086,145.551 97.7529,143.551 93.5,143C 90.979,137.197 87.6457,132.03 83.5,127.5 Z"/></g>
<g><path style="opacity:1" fill="#a3373a" d="M 217.5,145.5 C 212.365,148.572 207.365,151.905 202.5,155.5C 202.297,153.61 202.963,152.11 204.5,151C 207.629,149.601 210.629,147.935 213.5,146C 214.793,145.51 216.127,145.343 217.5,145.5 Z"/></g>
<g><path style="opacity:1" fill="#ad3235" d="M 328.5,143.5 C 327.655,151.03 325.989,158.364 323.5,165.5C 323.672,166.492 323.338,167.158 322.5,167.5C 323.792,161.589 324.625,155.589 325,149.5C 325.353,146.848 326.52,144.848 328.5,143.5 Z"/></g>
<g><path style="opacity:1" fill="#a32a30" d="M 111.5,151.5 C 116.194,150.896 120.528,151.729 124.5,154C 130.986,153.59 136.653,155.424 141.5,159.5C 135.407,157.516 129.074,156.349 122.5,156C 118.679,154.441 115.012,152.941 111.5,151.5 Z"/></g>
<g><path style="opacity:1" fill="#fdd7d9" d="M 328.5,143.5 C 328.833,143.5 329.167,143.5 329.5,143.5C 329.665,147.182 329.499,150.848 329,154.5C 327.611,157.533 326.445,160.699 325.5,164C 325.164,165.03 324.497,165.53 323.5,165.5C 325.989,158.364 327.655,151.03 328.5,143.5 Z"/></g>
<g><path style="opacity:1" fill="#300b09" d="M 106.5,148.5 C 108.816,149.16 111.149,149.827 113.5,150.5C 116.797,149.504 120.131,149.337 123.5,150C 127.033,152.642 131.033,153.642 135.5,153C 133.893,151.951 133.227,150.451 133.5,148.5C 134.76,150.367 136.427,151.7 138.5,152.5C 140.956,153.563 143.289,154.896 145.5,156.5C 146.914,158.598 146.248,159.598 143.5,159.5C 142.833,159.5 142.167,159.5 141.5,159.5C 136.653,155.424 130.986,153.59 124.5,154C 120.528,151.729 116.194,150.896 111.5,151.5C 110.167,151.167 108.833,150.833 107.5,150.5C 107.167,149.833 106.833,149.167 106.5,148.5 Z"/></g>
<g><path style="opacity:1" fill="#9c2428" d="M 138.5,152.5 C 144.706,153.936 151.04,154.769 157.5,155C 159.107,156.049 159.773,157.549 159.5,159.5C 158.5,159.5 157.5,159.5 156.5,159.5C 156.119,158.069 155.119,157.236 153.5,157C 150.854,156.503 148.187,156.336 145.5,156.5C 143.289,154.896 140.956,153.563 138.5,152.5 Z"/></g>
<g><path style="opacity:1" fill="#4b0f14" d="M 145.5,156.5 C 148.187,156.336 150.854,156.503 153.5,157C 155.119,157.236 156.119,158.069 156.5,159.5C 154.801,159.34 153.134,159.506 151.5,160C 152.167,160.333 152.833,160.667 153.5,161C 152.228,162.046 150.728,162.546 149,162.5C 146.258,162.884 144.425,161.884 143.5,159.5C 146.248,159.598 146.914,158.598 145.5,156.5 Z"/></g>
<g><path style="opacity:1" fill="#a53639" d="M 196.5,159.5 C 190.067,163.224 183.734,167.224 177.5,171.5C 177.33,170.178 177.663,169.011 178.5,168C 183.137,166.015 187.47,163.515 191.5,160.5C 193.045,159.548 194.712,159.215 196.5,159.5 Z"/></g>
<g><path style="opacity:1" fill="#1c1b1b" d="M 231.5,162.5 C 233.371,162.859 234.871,163.859 236,165.5C 237.709,168.418 239.542,171.252 241.5,174C 240.192,174.824 238.692,175.324 237,175.5C 235.893,172.416 234.727,169.416 233.5,166.5C 233.267,164.938 232.6,163.605 231.5,162.5 Z"/></g>
<g><path style="opacity:1" fill="#f3f2f1" d="M 239.5,152.5 C 240.167,152.5 240.833,152.5 241.5,152.5C 248.331,160.088 256.665,165.421 266.5,168.5C 269.375,172.281 273.042,175.114 277.5,177C 284.82,179.664 291.82,182.83 298.5,186.5C 299.768,188.047 301.435,189.047 303.5,189.5C 302.432,190.434 301.099,190.768 299.5,190.5C 299.5,191.833 299.5,193.167 299.5,194.5C 297.119,193.58 294.786,193.58 292.5,194.5C 290.237,190.733 287.404,187.399 284,184.5C 283.885,186.107 284.385,187.607 285.5,189C 285.333,189.5 285.167,190 285,190.5C 284.329,189.748 283.496,189.414 282.5,189.5C 281.749,190.573 280.749,190.74 279.5,190C 275.405,187.741 271.738,184.907 268.5,181.5C 268.167,181.833 267.833,182.167 267.5,182.5C 269.295,185.617 270.129,188.95 270,192.5C 268.649,190.981 267.149,189.648 265.5,188.5C 264.41,189.391 264.41,190.391 265.5,191.5C 264.998,192.521 264.332,192.688 263.5,192C 262.016,190.426 260.349,189.093 258.5,188C 260.085,187.915 261.418,187.749 262.5,187.5C 260.851,186.352 259.351,185.019 258,183.5C 257.517,184.448 257.351,185.448 257.5,186.5C 256.5,186.5 255.5,186.5 254.5,186.5C 254.657,187.873 254.49,189.207 254,190.5C 251.58,186.376 248.08,184.543 243.5,185C 247.694,190.105 252.36,194.772 257.5,199C 255.432,198.983 253.766,197.983 252.5,196C 249.283,194.363 245.95,193.03 242.5,192C 239.596,187.593 235.929,184.093 231.5,181.5C 232.75,181.423 233.583,180.756 234,179.5C 235.206,182.06 236.706,182.56 238.5,181C 237.99,179.174 237.156,179.007 236,180.5C 235.426,178.508 234.259,177.008 232.5,176C 233.866,173.618 233.533,171.452 231.5,169.5C 231.846,168.304 232.346,168.304 233,169.5C 233.483,168.552 233.649,167.552 233.5,166.5C 234.727,169.416 235.893,172.416 237,175.5C 238.692,175.324 240.192,174.824 241.5,174C 239.542,171.252 237.709,168.418 236,165.5C 234.871,163.859 233.371,162.859 231.5,162.5C 232.474,160.915 233.974,159.915 236,159.5C 236.49,158.207 236.657,156.873 236.5,155.5C 237.873,155.657 239.207,155.49 240.5,155C 239.748,154.329 239.414,153.496 239.5,152.5 Z"/></g>
<g><path style="opacity:1" fill="#252928" d="M 234.5,162.5 C 234.897,161.475 235.563,161.308 236.5,162C 240.182,166.32 243.682,170.487 247,174.5C 245.491,173.91 243.991,173.244 242.5,172.5C 240.159,168.835 237.493,165.501 234.5,162.5 Z"/></g>
<g><path style="opacity:1" fill="#a83c41" d="M 86.5,171.5 C 88.7716,176.698 91.6049,181.698 95,186.5C 95.49,187.793 95.6567,189.127 95.5,190.5C 91.1739,184.846 88.1739,178.512 86.5,171.5 Z"/></g>
<g><path style="opacity:1" fill="#aa3639" d="M 266.5,168.5 C 269.486,170.485 272.82,171.652 276.5,172C 277.337,173.011 277.67,174.178 277.5,175.5C 285.727,177.11 292.727,180.776 298.5,186.5C 291.82,182.83 284.82,179.664 277.5,177C 273.042,175.114 269.375,172.281 266.5,168.5 Z"/></g>
<g><path style="opacity:1" fill="#b43f47" d="M 168.5,177.5 C 164.232,180.995 159.232,182.329 153.5,181.5C 153.611,180.883 153.944,180.383 154.5,180C 159.294,179.653 163.96,178.82 168.5,177.5 Z"/></g>
<g><path style="opacity:1" fill="#211f20" d="M 231.5,181.5 C 235.929,184.093 239.596,187.593 242.5,192C 245.95,193.03 249.283,194.363 252.5,196C 253.766,197.983 255.432,198.983 257.5,199C 252.36,194.772 247.694,190.105 243.5,185C 248.08,184.543 251.58,186.376 254,190.5C 254.49,189.207 254.657,187.873 254.5,186.5C 255.5,186.5 256.5,186.5 257.5,186.5C 257.351,185.448 257.517,184.448 258,183.5C 259.351,185.019 260.851,186.352 262.5,187.5C 261.418,187.749 260.085,187.915 258.5,188C 260.349,189.093 262.016,190.426 263.5,192C 264.332,192.688 264.998,192.521 265.5,191.5C 264.41,190.391 264.41,189.391 265.5,188.5C 267.149,189.648 268.649,190.981 270,192.5C 270.129,188.95 269.295,185.617 267.5,182.5C 267.833,182.167 268.167,181.833 268.5,181.5C 271.738,184.907 275.405,187.741 279.5,190C 280.749,190.74 281.749,190.573 282.5,189.5C 283.496,189.414 284.329,189.748 285,190.5C 285.167,190 285.333,189.5 285.5,189C 284.385,187.607 283.885,186.107 284,184.5C 287.404,187.399 290.237,190.733 292.5,194.5C 294.786,193.58 297.119,193.58 299.5,194.5C 299.5,193.167 299.5,191.833 299.5,190.5C 301.099,190.768 302.432,190.434 303.5,189.5C 306.308,190.929 309.308,191.595 312.5,191.5C 314.833,192.833 317.167,194.167 319.5,195.5C 319.5,198.167 319.5,200.833 319.5,203.5C 319.5,205.833 319.5,208.167 319.5,210.5C 317.288,211.645 314.955,212.645 312.5,213.5C 311.556,218.774 308.556,222.107 303.5,223.5C 303.308,228.13 303.975,232.63 305.5,237C 305.156,238.365 304.489,239.532 303.5,240.5C 304.325,241.386 305.325,241.719 306.5,241.5C 306.768,243.099 306.434,244.432 305.5,245.5C 299.5,245.5 293.5,245.5 287.5,245.5C 245.003,244.501 202.337,244.168 159.5,244.5C 159.5,243.5 159.5,242.5 159.5,241.5C 199.527,241.952 239.527,241.452 279.5,240C 256.833,239.833 234.167,239.667 211.5,239.5C 187.77,239.53 164.104,240.196 140.5,241.5C 137.621,240.205 134.621,239.538 131.5,239.5C 131.5,240.833 131.5,242.167 131.5,243.5C 129.517,243.157 128.183,243.824 127.5,245.5C 124.859,244.737 122.192,244.57 119.5,245C 117.727,249.467 119.06,252.8 123.5,255C 124.793,255.49 126.127,255.657 127.5,255.5C 127.5,255.833 127.5,256.167 127.5,256.5C 127.5,256.833 127.5,257.167 127.5,257.5C 133.084,259.295 139.084,260.129 145.5,260C 148.689,260.981 149.022,262.314 146.5,264C 149.003,264.129 151.003,265.129 152.5,267C 144.239,267.575 135.906,267.408 127.5,266.5C 127.5,267.5 127.5,268.5 127.5,269.5C 135.042,268.99 142.375,269.656 149.5,271.5C 151.833,270.833 154.167,270.167 156.5,269.5C 162.721,271.724 169.054,272.057 175.5,270.5C 175.5,271.5 175.5,272.5 175.5,273.5C 177.5,273.5 179.5,273.5 181.5,273.5C 181.227,275.451 181.893,276.951 183.5,278C 187.152,278.499 190.818,278.665 194.5,278.5C 195.167,278.5 195.833,278.5 196.5,278.5C 197.263,279.268 198.263,279.768 199.5,280C 214.527,281.502 229.527,283.169 244.5,285C 242.866,285.494 241.199,285.66 239.5,285.5C 239.042,288.394 239.709,290.894 241.5,293C 251.616,293.41 261.616,294.576 271.5,296.5C 274.192,299.142 277.525,300.142 281.5,299.5C 280.605,302.738 280.605,305.905 281.5,309C 280.833,309.333 280.167,309.667 279.5,310C 287.398,311.821 295.398,312.654 303.5,312.5C 303.5,311.167 303.5,309.833 303.5,308.5C 297.729,309.113 292.396,308.446 287.5,306.5C 298.167,306.5 308.833,306.5 319.5,306.5C 316.641,307.823 313.974,309.657 311.5,312C 313.263,314.94 315.93,316.107 319.5,315.5C 322.641,316.321 325.975,316.821 329.5,317C 329.833,317.333 330.167,317.667 330.5,318C 327.896,320.742 328.229,323.242 331.5,325.5C 332.795,326.098 334.128,326.598 335.5,327C 335.167,327.333 334.833,327.667 334.5,328C 339.99,329.889 345.657,330.722 351.5,330.5C 351.5,331.5 351.5,332.5 351.5,333.5C 347.033,333.133 342.7,333.633 338.5,335C 344.825,335.5 351.158,335.666 357.5,335.5C 357.053,329.838 356.72,324.505 356.5,319.5C 357.384,314.612 355.384,312.112 350.5,312C 349.349,309.8 347.682,308.3 345.5,307.5C 345.567,306.041 345.234,304.708 344.5,303.5C 344.833,303.5 345.167,303.5 345.5,303.5C 346.167,303.5 346.833,303.5 347.5,303.5C 348.833,303.5 350.167,303.5 351.5,303.5C 351.773,301.549 351.107,300.049 349.5,299C 342.547,297.837 335.547,297.337 328.5,297.5C 328.5,296.5 328.5,295.5 328.5,294.5C 338.506,294.666 348.506,294.5 358.5,294C 361.041,291.607 361.041,289.44 358.5,287.5C 358.586,286.504 358.252,285.671 357.5,285C 355.527,284.505 353.527,284.338 351.5,284.5C 351.5,283.5 351.5,282.5 351.5,281.5C 357.366,282.253 362.7,281.253 367.5,278.5C 368.833,278.5 370.167,278.5 371.5,278.5C 373.942,278.354 374.609,279.187 373.5,281C 370.02,281.301 366.687,282.135 363.5,283.5C 363.709,284.086 364.043,284.586 364.5,285C 368.541,285.827 372.541,285.66 376.5,284.5C 381.709,277.262 382.542,269.595 379,261.5C 378.481,260.484 377.647,259.818 376.5,259.5C 372.188,258.646 367.854,257.979 363.5,257.5C 363.318,255.409 363.652,253.409 364.5,251.5C 365.325,250.614 366.325,250.281 367.5,250.5C 367.5,247.833 367.5,245.167 367.5,242.5C 365.641,242.539 364.308,241.706 363.5,240C 359.5,239.333 355.5,239.333 351.5,240C 354.667,241.234 357.834,242.401 361,243.5C 361.167,243.833 361.333,244.167 361.5,244.5C 359.955,245.452 358.288,245.785 356.5,245.5C 349.529,244.71 342.529,244.377 335.5,244.5C 335.187,241.753 335.52,239.086 336.5,236.5C 337.971,235.619 338.804,234.286 339,232.5C 339.249,233.624 339.749,234.624 340.5,235.5C 341.244,234.009 341.91,232.509 342.5,231C 340.557,229.061 339.557,226.728 339.5,224C 340.486,218.521 340.652,213.021 340,207.5C 337.699,206.123 337.199,204.456 338.5,202.5C 381.937,221.717 426.937,236.051 473.5,245.5C 473.5,246.5 473.5,247.5 473.5,248.5C 454.997,261.075 434.997,270.909 413.5,278C 402.654,283.186 402.987,287.853 414.5,292C 422.416,294.312 430.416,296.312 438.5,298C 442.234,298.846 445.568,300.346 448.5,302.5C 443.767,305.022 438.767,306.856 433.5,308C 416.625,310.775 399.958,314.441 383.5,319C 376.82,321.09 370.987,324.59 366,329.5C 364.419,335.062 365.919,339.562 370.5,343C 374.666,345.917 378.999,348.584 383.5,351C 392.5,354 401.5,357 410.5,360C 415.868,364.896 415.534,369.563 409.5,374C 395.116,382.185 379.782,387.019 363.5,388.5C 337.167,388.5 310.833,388.5 284.5,388.5C 278.553,387.347 272.553,385.847 266.5,384C 260.416,381.529 260.082,378.529 265.5,375C 270.694,373.153 275.528,370.653 280,367.5C 280.09,365.232 278.923,363.732 276.5,363C 267.645,360.362 258.645,358.362 249.5,357C 219.511,352.89 189.511,348.89 159.5,345C 146.676,342.837 134.676,338.504 123.5,332C 114.55,324.053 115.883,318.386 127.5,315C 132.833,314.333 138.167,313.667 143.5,313C 144.727,311.413 144.394,310.079 142.5,309C 111.124,297.826 78.7904,291.493 45.5,290C 38.2966,287.294 36.9632,282.961 41.5,277C 44.9335,274.565 48.6002,272.565 52.5,271C 60.0222,269.031 67.6889,268.031 75.5,268C 76.4581,266.853 76.1247,265.853 74.5,265C 53.1794,258.612 31.5128,253.612 9.5,250C 6.04901,249.105 2.71568,247.938 -0.5,246.5C -0.5,245.5 -0.5,244.5 -0.5,243.5C 2.80738,241.493 5.80738,238.993 8.5,236C 28.4888,231.003 48.4888,226.003 68.5,221C 72.6479,220.331 76.6479,220.831 80.5,222.5C 100.115,218.607 119.781,215.107 139.5,212C 152.337,208.167 164.67,203.167 176.5,197C 178.833,194.667 181.167,192.333 183.5,190C 195.033,183.937 195.366,184.604 184.5,192C 184.833,192.167 185.167,192.333 185.5,192.5C 190.569,188.803 195.902,185.97 201.5,184C 199.149,186.564 196.315,188.397 193,189.5C 191.599,191.146 191.432,192.813 192.5,194.5C 197.364,191.568 202.364,188.902 207.5,186.5C 210.484,186.213 211.817,184.546 211.5,181.5C 213.735,181.795 215.735,181.461 217.5,180.5C 222.17,177.249 226.003,177.916 229,182.5C 229.601,180.641 230.434,180.308 231.5,181.5 Z"/></g>
<g><path style="opacity:1" fill="#5a5858" d="M 217.5,180.5 C 215.735,181.461 213.735,181.795 211.5,181.5C 211.817,184.546 210.484,186.213 207.5,186.5C 209.545,185.077 210.545,183.077 210.5,180.5C 212.833,180.5 215.167,180.5 217.5,180.5 Z"/></g>
<g><path style="opacity:1" fill="#312928" d="M 282.5,189.5 C 280.114,188.627 278.114,187.127 276.5,185C 277.025,184.308 277.692,183.808 278.5,183.5C 280.252,185.246 281.585,187.246 282.5,189.5 Z"/></g>
<g><path style="opacity:1" fill="#9a2e35" d="M 298.5,186.5 C 303.007,188.113 307.673,188.779 312.5,188.5C 312.5,189.5 312.5,190.5 312.5,191.5C 309.308,191.595 306.308,190.929 303.5,189.5C 301.435,189.047 299.768,188.047 298.5,186.5 Z"/></g>
<g><path style="opacity:1" fill="#a73536" d="M 95.5,191.5 C 96.675,191.281 97.675,191.614 98.5,192.5C 100.225,195.867 101.892,199.2 103.5,202.5C 100.601,199.048 97.9341,195.382 95.5,191.5 Z"/></g>
<g><path style="opacity:1" fill="#b13337" d="M 152.5,181.5 C 145.441,189.203 137.107,195.203 127.5,199.5C 127.628,197.91 128.295,196.577 129.5,195.5C 134.765,194.736 138.431,191.902 140.5,187C 144.631,185.434 148.631,183.601 152.5,181.5 Z"/></g>
<g><path style="opacity:1" fill="#a72e34" d="M 125.5,200.5 C 121.656,204.31 116.989,206.644 111.5,207.5C 115.237,203.631 119.904,201.298 125.5,200.5 Z"/></g>
<g><path style="opacity:1" fill="#862b32" d="M 319.5,203.5 C 322.128,204.625 322.961,206.625 322,209.5C 321.329,210.252 320.496,210.586 319.5,210.5C 319.5,208.167 319.5,205.833 319.5,203.5 Z"/></g>
<g><path style="opacity:1" fill="#221f1a" d="M 336.5,199.5 C 336.5,200.167 336.5,200.833 336.5,201.5C 335.539,203.265 335.205,205.265 335.5,207.5C 333.005,207.969 330.339,207.969 327.5,207.5C 327.815,209.226 327.981,210.893 328,212.5C 325.093,213.431 322.26,214.431 319.5,215.5C 319.5,214.167 319.5,212.833 319.5,211.5C 320.822,211.67 321.989,211.337 323,210.5C 324,208.5 325,206.5 326,204.5C 328.403,203.219 330.237,201.386 331.5,199C 333.265,198.36 334.932,198.527 336.5,199.5 Z"/></g>
<g><path style="opacity:1" fill="#231e1f" d="M 335.5,207.5 C 336.812,209.743 337.478,212.41 337.5,215.5C 336.731,221.512 335.897,227.512 335,233.5C 331.864,235.164 330.697,237.831 331.5,241.5C 324.997,241.894 318.664,241.228 312.5,239.5C 311.832,234.637 312.832,230.304 315.5,226.5C 315.291,225.914 314.957,225.414 314.5,225C 319.414,223.262 324.414,221.762 329.5,220.5C 329.5,218.5 329.5,216.5 329.5,214.5C 331.484,214.383 333.15,215.05 334.5,216.5C 335.243,213.357 335.576,210.357 335.5,207.5 Z"/></g>
<g><path style="opacity:1" fill="#381c1e" d="M 336.5,199.5 C 334.932,198.527 333.265,198.36 331.5,199C 330.237,201.386 328.403,203.219 326,204.5C 325,206.5 324,208.5 323,210.5C 321.989,211.337 320.822,211.67 319.5,211.5C 319.5,212.833 319.5,214.167 319.5,215.5C 322.26,214.431 325.093,213.431 328,212.5C 327.981,210.893 327.815,209.226 327.5,207.5C 330.339,207.969 333.005,207.969 335.5,207.5C 335.576,210.357 335.243,213.357 334.5,216.5C 333.15,215.05 331.484,214.383 329.5,214.5C 329.5,216.5 329.5,218.5 329.5,220.5C 324.414,221.762 319.414,223.262 314.5,225C 314.957,225.414 315.291,225.914 315.5,226.5C 312.832,230.304 311.832,234.637 312.5,239.5C 312.002,235.71 310.835,232.044 309,228.5C 308.026,230.878 307.359,230.544 307,227.5C 306.308,228.025 305.808,228.692 305.5,229.5C 306.433,233.429 306.766,237.429 306.5,241.5C 305.325,241.719 304.325,241.386 303.5,240.5C 304.489,239.532 305.156,238.365 305.5,237C 303.975,232.63 303.308,228.13 303.5,223.5C 308.556,222.107 311.556,218.774 312.5,213.5C 314.955,212.645 317.288,211.645 319.5,210.5C 320.496,210.586 321.329,210.252 322,209.5C 322.961,206.625 322.128,204.625 319.5,203.5C 319.5,200.833 319.5,198.167 319.5,195.5C 322.686,196.338 325.853,197.338 329,198.5C 331.267,197.729 333.1,196.396 334.5,194.5C 336.217,195.668 336.884,197.335 336.5,199.5 Z"/></g>
<g><path style="opacity:1" fill="#271a20" d="M 287.5,245.5 C 239.5,245.5 191.5,245.5 143.5,245.5C 143.5,244.5 143.5,243.5 143.5,242.5C 141.654,242.222 140.32,242.889 139.5,244.5C 135.555,245.491 131.555,245.824 127.5,245.5C 128.183,243.824 129.517,243.157 131.5,243.5C 131.5,242.167 131.5,240.833 131.5,239.5C 134.621,239.538 137.621,240.205 140.5,241.5C 164.104,240.196 187.77,239.53 211.5,239.5C 234.167,239.667 256.833,239.833 279.5,240C 239.527,241.452 199.527,241.952 159.5,241.5C 159.5,242.5 159.5,243.5 159.5,244.5C 202.337,244.168 245.003,244.501 287.5,245.5 Z"/></g>
<g><path style="opacity:1" fill="#361c1f" d="M 336.5,201.5 C 337.492,201.328 338.158,201.662 338.5,202.5C 337.199,204.456 337.699,206.123 340,207.5C 340.652,213.021 340.486,218.521 339.5,224C 339.557,226.728 340.557,229.061 342.5,231C 341.91,232.509 341.244,234.009 340.5,235.5C 339.749,234.624 339.249,233.624 339,232.5C 338.804,234.286 337.971,235.619 336.5,236.5C 335.52,239.086 335.187,241.753 335.5,244.5C 342.529,244.377 349.529,244.71 356.5,245.5C 356.5,245.833 356.5,246.167 356.5,246.5C 348.316,246.826 340.316,246.492 332.5,245.5C 332.047,244.542 331.381,243.708 330.5,243C 324.509,242.501 318.509,242.334 312.5,242.5C 312.5,241.5 312.5,240.5 312.5,239.5C 318.664,241.228 324.997,241.894 331.5,241.5C 330.697,237.831 331.864,235.164 335,233.5C 335.897,227.512 336.731,221.512 337.5,215.5C 337.478,212.41 336.812,209.743 335.5,207.5C 335.205,205.265 335.539,203.265 336.5,201.5 Z"/></g>
<g><path style="opacity:1" fill="#4d1e20" d="M 312.5,239.5 C 312.5,240.5 312.5,241.5 312.5,242.5C 318.509,242.334 324.509,242.501 330.5,243C 331.381,243.708 332.047,244.542 332.5,245.5C 327.348,243.57 322.014,243.07 316.5,244C 319.869,245.672 323.202,247.172 326.5,248.5C 321.921,248.847 317.588,248.18 313.5,246.5C 313.191,249.596 312.191,252.429 310.5,255C 310.93,256.434 311.764,257.601 313,258.5C 313.494,260.134 313.66,261.801 313.5,263.5C 318.562,263.726 323.562,263.392 328.5,262.5C 327.694,263.728 326.694,264.728 325.5,265.5C 325.167,265.5 324.833,265.5 324.5,265.5C 320.818,265.665 317.152,265.499 313.5,265C 311.967,262.971 310.301,261.138 308.5,259.5C 308.198,256.941 308.532,254.607 309.5,252.5C 311.655,250.383 312.655,247.716 312.5,244.5C 309.892,244.4 307.558,245.067 305.5,246.5C 305.5,246.167 305.5,245.833 305.5,245.5C 306.434,244.432 306.768,243.099 306.5,241.5C 306.766,237.429 306.433,233.429 305.5,229.5C 305.808,228.692 306.308,228.025 307,227.5C 307.359,230.544 308.026,230.878 309,228.5C 310.835,232.044 312.002,235.71 312.5,239.5 Z"/></g>
<g><path style="opacity:1" fill="#440e12" d="M 287.5,245.5 C 293.5,245.5 299.5,245.5 305.5,245.5C 305.5,245.833 305.5,246.167 305.5,246.5C 278.167,246.5 250.833,246.5 223.5,246.5C 188.833,246.5 154.167,246.5 119.5,246.5C 119.33,247.822 119.663,248.989 120.5,250C 123.992,249.93 126.992,250.763 129.5,252.5C 127.952,252.821 127.285,253.821 127.5,255.5C 126.127,255.657 124.793,255.49 123.5,255C 119.06,252.8 117.727,249.467 119.5,245C 122.192,244.57 124.859,244.737 127.5,245.5C 131.555,245.824 135.555,245.491 139.5,244.5C 140.32,242.889 141.654,242.222 143.5,242.5C 143.5,243.5 143.5,244.5 143.5,245.5C 191.5,245.5 239.5,245.5 287.5,245.5 Z"/></g>
<g><path style="opacity:1" fill="#87242b" d="M 223.5,246.5 C 223.5,246.833 223.5,247.167 223.5,247.5C 192.16,247.167 160.826,247.5 129.5,248.5C 130.705,249.995 130.705,251.328 129.5,252.5C 126.992,250.763 123.992,249.93 120.5,250C 119.663,248.989 119.33,247.822 119.5,246.5C 154.167,246.5 188.833,246.5 223.5,246.5 Z"/></g>
<g><path style="opacity:1" fill="#691c1c" d="M 309.5,252.5 C 310.038,250.883 310.371,249.216 310.5,247.5C 281.5,247.5 252.5,247.5 223.5,247.5C 223.5,247.167 223.5,246.833 223.5,246.5C 250.833,246.5 278.167,246.5 305.5,246.5C 307.558,245.067 309.892,244.4 312.5,244.5C 312.655,247.716 311.655,250.383 309.5,252.5 Z"/></g>
<g><path style="opacity:1" fill="#5e171b" d="M 332.5,245.5 C 340.316,246.492 348.316,246.826 356.5,246.5C 357.434,247.568 357.768,248.901 357.5,250.5C 355.5,250.5 353.5,250.5 351.5,250.5C 344.442,250.931 337.442,252.264 330.5,254.5C 329.156,252.471 327.823,250.471 326.5,248.5C 323.202,247.172 319.869,245.672 316.5,244C 322.014,243.07 327.348,243.57 332.5,245.5 Z"/></g>
<g><path style="opacity:1" fill="#fdfdfd" d="M -0.5,246.5 C 2.71568,247.938 6.04901,249.105 9.5,250C 31.5128,253.612 53.1794,258.612 74.5,265C 76.1247,265.853 76.4581,266.853 75.5,268C 67.6889,268.031 60.0222,269.031 52.5,271C 48.6002,272.565 44.9335,274.565 41.5,277C 36.9632,282.961 38.2966,287.294 45.5,290C 78.7904,291.493 111.124,297.826 142.5,309C 144.394,310.079 144.727,311.413 143.5,313C 138.167,313.667 132.833,314.333 127.5,315C 115.883,318.386 114.55,324.053 123.5,332C 134.676,338.504 146.676,342.837 159.5,345C 189.511,348.89 219.511,352.89 249.5,357C 258.645,358.362 267.645,360.362 276.5,363C 278.923,363.732 280.09,365.232 280,367.5C 275.528,370.653 270.694,373.153 265.5,375C 260.082,378.529 260.416,381.529 266.5,384C 272.553,385.847 278.553,387.347 284.5,388.5C 189.5,388.5 94.5,388.5 -0.5,388.5C -0.5,341.167 -0.5,293.833 -0.5,246.5 Z"/></g>
<g><path style="opacity:1" fill="#ac3335" d="M 223.5,247.5 C 252.5,247.5 281.5,247.5 310.5,247.5C 310.371,249.216 310.038,250.883 309.5,252.5C 308.532,254.607 308.198,256.941 308.5,259.5C 306.754,258.751 305.754,257.417 305.5,255.5C 306.977,253.361 307.977,251.028 308.5,248.5C 249.833,248.5 191.167,248.5 132.5,248.5C 132.5,250.833 132.5,253.167 132.5,255.5C 138.358,255.178 144.025,255.511 149.5,256.5C 142.167,256.5 134.833,256.5 127.5,256.5C 127.5,256.167 127.5,255.833 127.5,255.5C 127.285,253.821 127.952,252.821 129.5,252.5C 130.705,251.328 130.705,249.995 129.5,248.5C 160.826,247.5 192.16,247.167 223.5,247.5 Z"/></g>
<g><path style="opacity:1" fill="#fcfcfc" d="M 473.5,248.5 C 473.5,295.167 473.5,341.833 473.5,388.5C 436.833,388.5 400.167,388.5 363.5,388.5C 379.782,387.019 395.116,382.185 409.5,374C 415.534,369.563 415.868,364.896 410.5,360C 401.5,357 392.5,354 383.5,351C 378.999,348.584 374.666,345.917 370.5,343C 365.919,339.562 364.419,335.062 366,329.5C 370.987,324.59 376.82,321.09 383.5,319C 399.958,314.441 416.625,310.775 433.5,308C 438.767,306.856 443.767,305.022 448.5,302.5C 445.568,300.346 442.234,298.846 438.5,298C 430.416,296.312 422.416,294.312 414.5,292C 402.987,287.853 402.654,283.186 413.5,278C 434.997,270.909 454.997,261.075 473.5,248.5 Z"/></g>
<g><path style="opacity:1" fill="#c62329" d="M 308.5,259.5 C 310.301,261.138 311.967,262.971 313.5,265C 317.152,265.499 320.818,265.665 324.5,265.5C 322.952,266.794 320.952,267.461 318.5,267.5C 314.282,267.742 310.449,266.742 307,264.5C 305.989,265.337 304.822,265.67 303.5,265.5C 303.5,264.5 303.5,263.5 303.5,262.5C 298.07,262.536 292.737,263.203 287.5,264.5C 287.5,263.5 287.5,262.5 287.5,261.5C 284.813,261.336 282.146,261.503 279.5,262C 283.185,262.914 282.852,263.581 278.5,264C 274.667,264.167 270.833,264.333 267,264.5C 257.172,263.445 247.339,262.445 237.5,261.5C 234.958,261.586 232.458,261.92 230,262.5C 228.775,262.138 227.609,261.638 226.5,261C 227.696,260.346 227.696,259.846 226.5,259.5C 225.833,259.833 225.167,260.167 224.5,260.5C 223.534,258.604 223.201,256.604 223.5,254.5C 218.156,254.666 212.823,254.499 207.5,254C 236.869,254.032 266.202,253.199 295.5,251.5C 298.555,251.544 301.555,251.877 304.5,252.5C 305.386,251.675 305.719,250.675 305.5,249.5C 248.142,249.619 190.809,249.619 133.5,249.5C 133.5,250.5 133.5,251.5 133.5,252.5C 147.518,252.324 161.518,252.657 175.5,253.5C 175.5,254.5 175.5,255.5 175.5,256.5C 183.576,255.067 191.576,255.233 199.5,257C 193.141,257.169 186.807,257.669 180.5,258.5C 180.291,259.086 179.957,259.586 179.5,260C 171.172,260.116 162.839,259.95 154.5,259.5C 154.5,260.5 154.5,261.5 154.5,262.5C 153.837,260.958 153.17,259.291 152.5,257.5C 151.583,256.873 150.583,256.539 149.5,256.5C 144.025,255.511 138.358,255.178 132.5,255.5C 132.5,253.167 132.5,250.833 132.5,248.5C 191.167,248.5 249.833,248.5 308.5,248.5C 307.977,251.028 306.977,253.361 305.5,255.5C 305.754,257.417 306.754,258.751 308.5,259.5 Z"/></g>
<g><path style="opacity:1" fill="#271d1f" d="M 371.5,278.5 C 372.301,276.958 372.634,275.292 372.5,273.5C 374.429,273.769 376.095,273.269 377.5,272C 376.736,269.931 376.236,267.764 376,265.5C 375.5,265 375,264.5 374.5,264C 371.628,263.685 368.795,263.185 366,262.5C 365.235,262.57 364.735,262.903 364.5,263.5C 363.833,263.5 363.167,263.5 362.5,263.5C 362.389,262.883 362.056,262.383 361.5,262C 355.804,261.83 350.138,261.33 344.5,260.5C 345.95,259.15 346.617,257.484 346.5,255.5C 342.833,255.5 339.167,255.5 335.5,255.5C 334.448,255.351 333.448,255.517 332.5,256C 331.766,258.561 330.433,260.727 328.5,262.5C 323.562,263.392 318.562,263.726 313.5,263.5C 313.66,261.801 313.494,260.134 313,258.5C 311.764,257.601 310.93,256.434 310.5,255C 312.191,252.429 313.191,249.596 313.5,246.5C 317.588,248.18 321.921,248.847 326.5,248.5C 327.823,250.471 329.156,252.471 330.5,254.5C 337.442,252.264 344.442,250.931 351.5,250.5C 353.5,250.5 355.5,250.5 357.5,250.5C 357.768,248.901 357.434,247.568 356.5,246.5C 356.5,246.167 356.5,245.833 356.5,245.5C 358.288,245.785 359.955,245.452 361.5,244.5C 361.333,244.167 361.167,243.833 361,243.5C 357.834,242.401 354.667,241.234 351.5,240C 355.5,239.333 359.5,239.333 363.5,240C 364.308,241.706 365.641,242.539 367.5,242.5C 367.5,245.167 367.5,247.833 367.5,250.5C 366.325,250.281 365.325,250.614 364.5,251.5C 363.652,253.409 363.318,255.409 363.5,257.5C 367.854,257.979 372.188,258.646 376.5,259.5C 377.647,259.818 378.481,260.484 379,261.5C 382.542,269.595 381.709,277.262 376.5,284.5C 372.541,285.66 368.541,285.827 364.5,285C 364.043,284.586 363.709,284.086 363.5,283.5C 366.687,282.135 370.02,281.301 373.5,281C 374.609,279.187 373.942,278.354 371.5,278.5 Z"/></g>
<g><path style="opacity:1" fill="#983233" d="M 351.5,250.5 C 344.442,250.203 337.442,250.536 330.5,251.5C 329.738,250.372 329.071,249.205 328.5,248C 337.5,247.333 346.5,247.333 355.5,248C 353.934,248.608 352.6,249.442 351.5,250.5 Z"/></g>
<g><path style="opacity:1" fill="#771e20" d="M 127.5,257.5 C 127.5,257.167 127.5,256.833 127.5,256.5C 134.833,256.5 142.167,256.5 149.5,256.5C 150.583,256.539 151.583,256.873 152.5,257.5C 153.17,259.291 153.837,260.958 154.5,262.5C 154.5,262.833 154.5,263.167 154.5,263.5C 153.504,263.586 152.671,263.252 152,262.5C 151.727,260.671 150.893,259.171 149.5,258C 142.174,257.5 134.841,257.334 127.5,257.5 Z"/></g>
<g><path style="opacity:1" fill="#7a130e" d="M 255.5,257.5 C 266.187,257.168 276.854,257.501 287.5,258.5C 282.167,258.833 276.833,259.167 271.5,259.5C 265.789,259.495 260.456,258.828 255.5,257.5 Z"/></g>
<g><path style="opacity:1" fill="#4b1111" d="M 335.5,255.5 C 339.167,255.5 342.833,255.5 346.5,255.5C 346.617,257.484 345.95,259.15 344.5,260.5C 350.138,261.33 355.804,261.83 361.5,262C 362.056,262.383 362.389,262.883 362.5,263.5C 361.5,263.5 360.5,263.5 359.5,263.5C 354.349,262.673 349.016,262.173 343.5,262C 342.376,261.751 341.376,261.251 340.5,260.5C 342.149,259.852 343.482,258.852 344.5,257.5C 341.358,256.833 338.358,256.166 335.5,255.5 Z"/></g>
<g><path style="opacity:1" fill="#982f30" d="M 335.5,255.5 C 338.358,256.166 341.358,256.833 344.5,257.5C 343.482,258.852 342.149,259.852 340.5,260.5C 341.376,261.251 342.376,261.751 343.5,262C 349.016,262.173 354.349,262.673 359.5,263.5C 352.833,263.5 346.167,263.5 339.5,263.5C 339.5,261.5 339.5,259.5 339.5,257.5C 334.534,257.462 331.201,259.795 329.5,264.5C 328.292,265.234 326.959,265.567 325.5,265.5C 326.694,264.728 327.694,263.728 328.5,262.5C 330.433,260.727 331.766,258.561 332.5,256C 333.448,255.517 334.448,255.351 335.5,255.5 Z"/></g>
<g><path style="opacity:1" fill="#b42930" d="M 359.5,263.5 C 360.5,263.5 361.5,263.5 362.5,263.5C 365.247,266.284 368.081,268.951 371,271.5C 372.311,275.262 371.144,277.595 367.5,278.5C 365.167,278.5 362.833,278.5 360.5,278.5C 357.5,278.5 354.5,278.5 351.5,278.5C 357.318,277.136 363.318,276.136 369.5,275.5C 369.5,274.167 369.5,272.833 369.5,271.5C 365.219,272.517 362.886,270.85 362.5,266.5C 354.549,265.234 346.549,264.401 338.5,264C 337.862,262.293 337.862,260.46 338.5,258.5C 337.448,258.351 336.448,258.517 335.5,259C 333.63,261.04 331.63,262.873 329.5,264.5C 331.201,259.795 334.534,257.462 339.5,257.5C 339.5,259.5 339.5,261.5 339.5,263.5C 346.167,263.5 352.833,263.5 359.5,263.5 Z"/></g>
<g><path style="opacity:1" fill="#a72a31" d="M 167.5,265.5 C 175.838,264.992 183.838,265.992 191.5,268.5C 183.26,268.343 175.26,267.343 167.5,265.5 Z"/></g>
<g><path style="opacity:1" fill="#511417" d="M 154.5,264.5 C 158.898,264.294 163.232,264.627 167.5,265.5C 175.26,267.343 183.26,268.343 191.5,268.5C 192.5,269.167 193.5,269.833 194.5,270.5C 180.759,270.286 167.425,268.286 154.5,264.5 Z"/></g>
<g><path style="opacity:1" fill="#471814" d="M 362.5,263.5 C 363.167,263.5 363.833,263.5 364.5,263.5C 366.508,265.268 368.674,266.934 371,268.5C 372.009,270.025 372.509,271.692 372.5,273.5C 372.634,275.292 372.301,276.958 371.5,278.5C 370.167,278.5 368.833,278.5 367.5,278.5C 371.144,277.595 372.311,275.262 371,271.5C 368.081,268.951 365.247,266.284 362.5,263.5 Z"/></g>
<g><path style="opacity:1" fill="#ce2127" d="M 324.5,265.5 C 324.833,265.5 325.167,265.5 325.5,265.5C 326.959,265.567 328.292,265.234 329.5,264.5C 331.63,262.873 333.63,261.04 335.5,259C 336.448,258.517 337.448,258.351 338.5,258.5C 337.862,260.46 337.862,262.293 338.5,264C 346.549,264.401 354.549,265.234 362.5,266.5C 362.886,270.85 365.219,272.517 369.5,271.5C 369.5,272.833 369.5,274.167 369.5,275.5C 363.318,276.136 357.318,277.136 351.5,278.5C 344.63,279.208 337.63,280.042 330.5,281C 327.311,281.981 326.978,283.314 329.5,285C 337.833,285.333 346.167,285.667 354.5,286C 355.745,286.791 357.078,287.291 358.5,287.5C 358.784,289.415 358.451,291.081 357.5,292.5C 347.84,291.741 338.174,291.574 328.5,292C 327.619,292.708 326.953,293.542 326.5,294.5C 325.28,296.05 325.28,297.716 326.5,299.5C 326.611,300.117 326.944,300.617 327.5,301C 330.226,301.182 332.893,301.682 335.5,302.5C 330.145,304.106 325.145,303.439 320.5,300.5C 319.614,299.675 319.281,298.675 319.5,297.5C 314.817,296.998 310.15,296.331 305.5,295.5C 304.259,296.037 303.092,296.704 302,297.5C 296.456,297.225 290.956,296.058 285.5,294C 272.162,292.807 258.829,291.641 245.5,290.5C 245.5,289.5 245.5,288.5 245.5,287.5C 246.5,287.5 247.5,287.5 248.5,287.5C 249.847,288.028 251.181,288.195 252.5,288C 251.862,286.293 251.862,284.46 252.5,282.5C 242.946,280.601 233.279,279.601 223.5,279.5C 221.046,278.379 218.379,277.546 215.5,277C 209.5,276.667 203.5,276.333 197.5,276C 196.833,275.667 196.167,275.333 195.5,275C 197.441,274.696 199.107,273.863 200.5,272.5C 201.833,271.5 201.833,270.5 200.5,269.5C 197.579,268.593 194.579,268.26 191.5,268.5C 183.838,265.992 175.838,264.992 167.5,265.5C 163.232,264.627 158.898,264.294 154.5,264.5C 154.5,264.167 154.5,263.833 154.5,263.5C 154.5,263.167 154.5,262.833 154.5,262.5C 154.5,261.5 154.5,260.5 154.5,259.5C 162.839,259.95 171.172,260.116 179.5,260C 179.957,259.586 180.291,259.086 180.5,258.5C 186.807,257.669 193.141,257.169 199.5,257C 191.576,255.233 183.576,255.067 175.5,256.5C 175.5,255.5 175.5,254.5 175.5,253.5C 161.518,252.657 147.518,252.324 133.5,252.5C 133.5,251.5 133.5,250.5 133.5,249.5C 190.809,249.619 248.142,249.619 305.5,249.5C 305.719,250.675 305.386,251.675 304.5,252.5C 301.555,251.877 298.555,251.544 295.5,251.5C 266.202,253.199 236.869,254.032 207.5,254C 212.823,254.499 218.156,254.666 223.5,254.5C 223.201,256.604 223.534,258.604 224.5,260.5C 225.167,260.167 225.833,259.833 226.5,259.5C 227.696,259.846 227.696,260.346 226.5,261C 227.609,261.638 228.775,262.138 230,262.5C 232.458,261.92 234.958,261.586 237.5,261.5C 247.339,262.445 257.172,263.445 267,264.5C 270.833,264.333 274.667,264.167 278.5,264C 282.852,263.581 283.185,262.914 279.5,262C 282.146,261.503 284.813,261.336 287.5,261.5C 287.5,262.5 287.5,263.5 287.5,264.5C 292.737,263.203 298.07,262.536 303.5,262.5C 303.5,263.5 303.5,264.5 303.5,265.5C 304.822,265.67 305.989,265.337 307,264.5C 310.449,266.742 314.282,267.742 318.5,267.5C 320.952,267.461 322.952,266.794 324.5,265.5 Z"/></g>
<g><path style="opacity:1" fill="#1b241a" d="M 372.5,273.5 C 372.509,271.692 372.009,270.025 371,268.5C 368.674,266.934 366.508,265.268 364.5,263.5C 364.735,262.903 365.235,262.57 366,262.5C 368.795,263.185 371.628,263.685 374.5,264C 375,264.5 375.5,265 376,265.5C 376.236,267.764 376.736,269.931 377.5,272C 376.095,273.269 374.429,273.769 372.5,273.5 Z"/></g>
<g><path style="opacity:1" fill="#2a1a1f" d="M 127.5,257.5 C 134.841,257.334 142.174,257.5 149.5,258C 150.893,259.171 151.727,260.671 152,262.5C 152.671,263.252 153.504,263.586 154.5,263.5C 154.5,263.833 154.5,264.167 154.5,264.5C 167.425,268.286 180.759,270.286 194.5,270.5C 190.413,272.064 186.079,273.064 181.5,273.5C 179.5,273.5 177.5,273.5 175.5,273.5C 175.5,272.5 175.5,271.5 175.5,270.5C 169.054,272.057 162.721,271.724 156.5,269.5C 154.167,270.167 151.833,270.833 149.5,271.5C 142.375,269.656 135.042,268.99 127.5,269.5C 127.5,268.5 127.5,267.5 127.5,266.5C 135.906,267.408 144.239,267.575 152.5,267C 151.003,265.129 149.003,264.129 146.5,264C 149.022,262.314 148.689,260.981 145.5,260C 139.084,260.129 133.084,259.295 127.5,257.5 Z"/></g>
<g><path style="opacity:1" fill="#4e1417" d="M 194.5,270.5 C 195.873,270.343 197.207,270.51 198.5,271C 196.355,272.289 194.022,273.122 191.5,273.5C 188.393,273.351 185.393,273.851 182.5,275C 183.328,275.915 184.328,276.581 185.5,277C 188.695,277.181 191.695,277.681 194.5,278.5C 190.818,278.665 187.152,278.499 183.5,278C 181.893,276.951 181.227,275.451 181.5,273.5C 186.079,273.064 190.413,272.064 194.5,270.5 Z"/></g>
<g><path style="opacity:1" fill="#ae2c2d" d="M 191.5,268.5 C 194.579,268.26 197.579,268.593 200.5,269.5C 201.833,270.5 201.833,271.5 200.5,272.5C 199.107,273.863 197.441,274.696 195.5,275C 196.167,275.333 196.833,275.667 197.5,276C 203.5,276.333 209.5,276.667 215.5,277C 218.379,277.546 221.046,278.379 223.5,279.5C 217.974,279.821 212.64,279.488 207.5,278.5C 201.647,277.671 195.647,276.838 189.5,276C 190.756,275.583 191.423,274.75 191.5,273.5C 194.022,273.122 196.355,272.289 198.5,271C 197.207,270.51 195.873,270.343 194.5,270.5C 193.5,269.833 192.5,269.167 191.5,268.5 Z"/></g>
<g><path style="opacity:1" fill="#862524" d="M 191.5,273.5 C 191.423,274.75 190.756,275.583 189.5,276C 195.647,276.838 201.647,277.671 207.5,278.5C 203.833,278.5 200.167,278.5 196.5,278.5C 195.833,278.5 195.167,278.5 194.5,278.5C 191.695,277.681 188.695,277.181 185.5,277C 184.328,276.581 183.328,275.915 182.5,275C 185.393,273.851 188.393,273.351 191.5,273.5 Z"/></g>
<g><path style="opacity:1" fill="#6a1a1d" d="M 351.5,278.5 C 354.5,278.5 357.5,278.5 360.5,278.5C 351.548,280.369 342.215,281.536 332.5,282C 331.167,282.667 331.167,283.333 332.5,284C 338.825,284.5 345.158,284.666 351.5,284.5C 353.527,284.338 355.527,284.505 357.5,285C 358.252,285.671 358.586,286.504 358.5,287.5C 357.078,287.291 355.745,286.791 354.5,286C 346.167,285.667 337.833,285.333 329.5,285C 326.978,283.314 327.311,281.981 330.5,281C 337.63,280.042 344.63,279.208 351.5,278.5 Z"/></g>
<g><path style="opacity:1" fill="#461517" d="M 196.5,278.5 C 200.167,278.5 203.833,278.5 207.5,278.5C 212.64,279.488 217.974,279.821 223.5,279.5C 231.445,281.373 239.778,282.54 248.5,283C 250.931,284.432 250.931,285.932 248.5,287.5C 247.5,287.5 246.5,287.5 245.5,287.5C 243.744,288.552 243.077,290.219 243.5,292.5C 250.529,292.377 257.529,292.71 264.5,293.5C 270.219,294.577 275.885,295.911 281.5,297.5C 278.119,297.54 274.786,297.207 271.5,296.5C 261.616,294.576 251.616,293.41 241.5,293C 239.709,290.894 239.042,288.394 239.5,285.5C 241.199,285.66 242.866,285.494 244.5,285C 229.527,283.169 214.527,281.502 199.5,280C 198.263,279.768 197.263,279.268 196.5,278.5 Z"/></g>
<g><path style="opacity:1" fill="#ac2b32" d="M 223.5,279.5 C 233.279,279.601 242.946,280.601 252.5,282.5C 251.862,284.46 251.862,286.293 252.5,288C 251.181,288.195 249.847,288.028 248.5,287.5C 250.931,285.932 250.931,284.432 248.5,283C 239.778,282.54 231.445,281.373 223.5,279.5 Z"/></g>
<g><path style="opacity:1" fill="#39111b" d="M 360.5,278.5 C 362.833,278.5 365.167,278.5 367.5,278.5C 362.7,281.253 357.366,282.253 351.5,281.5C 351.5,282.5 351.5,283.5 351.5,284.5C 345.158,284.666 338.825,284.5 332.5,284C 331.167,283.333 331.167,282.667 332.5,282C 342.215,281.536 351.548,280.369 360.5,278.5 Z"/></g>
<g><path style="opacity:1" fill="#92222c" d="M 357.5,292.5 C 347.833,293.167 338.167,293.833 328.5,294.5C 327.833,294.5 327.167,294.5 326.5,294.5C 326.953,293.542 327.619,292.708 328.5,292C 338.174,291.574 347.84,291.741 357.5,292.5 Z"/></g>
<g><path style="opacity:1" fill="#972a2d" d="M 264.5,293.5 C 270.523,293.669 276.523,294.169 282.5,295C 286.04,296.712 287.707,299.545 287.5,303.5C 286.167,303.5 284.833,303.5 283.5,303.5C 283.946,300.99 283.28,298.99 281.5,297.5C 275.885,295.911 270.219,294.577 264.5,293.5 Z"/></g>
<g><path style="opacity:1" fill="#4e1317" d="M 358.5,287.5 C 361.041,289.44 361.041,291.607 358.5,294C 348.506,294.5 338.506,294.666 328.5,294.5C 338.167,293.833 347.833,293.167 357.5,292.5C 358.451,291.081 358.784,289.415 358.5,287.5 Z"/></g>
<g><path style="opacity:1" fill="#bf2629" d="M 245.5,287.5 C 245.5,288.5 245.5,289.5 245.5,290.5C 258.829,291.641 272.162,292.807 285.5,294C 290.956,296.058 296.456,297.225 302,297.5C 303.092,296.704 304.259,296.037 305.5,295.5C 310.15,296.331 314.817,296.998 319.5,297.5C 319.281,298.675 319.614,299.675 320.5,300.5C 325.145,303.439 330.145,304.106 335.5,302.5C 332.893,301.682 330.226,301.182 327.5,301C 326.944,300.617 326.611,300.117 326.5,299.5C 332.118,300.242 337.785,300.742 343.5,301C 344.756,301.417 345.423,302.25 345.5,303.5C 345.167,303.5 344.833,303.5 344.5,303.5C 325.666,305.445 306.666,306.112 287.5,305.5C 287.5,304.833 287.5,304.167 287.5,303.5C 287.707,299.545 286.04,296.712 282.5,295C 276.523,294.169 270.523,293.669 264.5,293.5C 257.529,292.71 250.529,292.377 243.5,292.5C 243.077,290.219 243.744,288.552 245.5,287.5 Z"/></g>
<g><path style="opacity:1" fill="#8f292b" d="M 326.5,294.5 C 326.33,295.822 326.663,296.989 327.5,298C 333.449,299.073 339.449,299.74 345.5,300C 347.939,300.533 348.605,301.7 347.5,303.5C 346.833,303.5 346.167,303.5 345.5,303.5C 345.423,302.25 344.756,301.417 343.5,301C 337.785,300.742 332.118,300.242 326.5,299.5C 325.28,297.716 325.28,296.05 326.5,294.5 Z"/></g>
<g><path style="opacity:1" fill="#4c171b" d="M 326.5,294.5 C 327.167,294.5 327.833,294.5 328.5,294.5C 328.5,295.5 328.5,296.5 328.5,297.5C 335.547,297.337 342.547,297.837 349.5,299C 351.107,300.049 351.773,301.549 351.5,303.5C 350.167,303.5 348.833,303.5 347.5,303.5C 348.605,301.7 347.939,300.533 345.5,300C 339.449,299.74 333.449,299.073 327.5,298C 326.663,296.989 326.33,295.822 326.5,294.5 Z"/></g>
<g><path style="opacity:1" fill="#491214" d="M 344.5,303.5 C 345.234,304.708 345.567,306.041 345.5,307.5C 336.887,306.558 328.221,306.225 319.5,306.5C 308.833,306.5 298.167,306.5 287.5,306.5C 287.5,306.167 287.5,305.833 287.5,305.5C 306.666,306.112 325.666,305.445 344.5,303.5 Z"/></g>
<g><path style="opacity:1" fill="#2c1b22" d="M 271.5,296.5 C 274.786,297.207 278.119,297.54 281.5,297.5C 283.28,298.99 283.946,300.99 283.5,303.5C 284.833,303.5 286.167,303.5 287.5,303.5C 287.5,304.167 287.5,304.833 287.5,305.5C 287.5,305.833 287.5,306.167 287.5,306.5C 292.396,308.446 297.729,309.113 303.5,308.5C 303.5,309.833 303.5,311.167 303.5,312.5C 295.398,312.654 287.398,311.821 279.5,310C 280.167,309.667 280.833,309.333 281.5,309C 280.605,305.905 280.605,302.738 281.5,299.5C 277.525,300.142 274.192,299.142 271.5,296.5 Z"/></g>
<g><path style="opacity:1" fill="#391419" d="M 319.5,306.5 C 328.221,306.225 336.887,306.558 345.5,307.5C 347.682,308.3 349.349,309.8 350.5,312C 355.384,312.112 357.384,314.612 356.5,319.5C 355.833,319.5 355.167,319.5 354.5,319.5C 354.5,318.167 354.5,316.833 354.5,315.5C 351.939,314.615 349.606,313.282 347.5,311.5C 347.389,310.883 347.056,310.383 346.5,310C 336.167,309.333 325.833,309.333 315.5,310C 314.015,311.756 314.348,312.923 316.5,313.5C 317.5,314.167 318.5,314.833 319.5,315.5C 315.93,316.107 313.263,314.94 311.5,312C 313.974,309.657 316.641,307.823 319.5,306.5 Z"/></g>
<g><path style="opacity:1" fill="#6c191a" d="M 347.5,311.5 C 347.167,311.5 346.833,311.5 346.5,311.5C 346.167,311.5 345.833,311.5 345.5,311.5C 336.009,310.342 326.342,310.175 316.5,311C 315.402,311.77 315.402,312.603 316.5,313.5C 314.348,312.923 314.015,311.756 315.5,310C 325.833,309.333 336.167,309.333 346.5,310C 347.056,310.383 347.389,310.883 347.5,311.5 Z"/></g>
<g><path style="opacity:1" fill="#60151b" d="M 316.5,313.5 C 322.888,313.312 329.222,313.812 335.5,315C 338.113,316.071 338.113,316.905 335.5,317.5C 330.432,315.822 325.098,315.156 319.5,315.5C 318.5,314.833 317.5,314.167 316.5,313.5 Z"/></g>
<g><path style="opacity:1" fill="#b32b2d" d="M 345.5,311.5 C 342.15,311.335 338.817,311.502 335.5,312C 337.351,312.837 339.184,313.671 341,314.5C 341.54,316.135 341.04,317.468 339.5,318.5C 341.108,319.318 342.775,319.985 344.5,320.5C 346.129,317.734 346.795,314.734 346.5,311.5C 346.833,311.5 347.167,311.5 347.5,311.5C 349.606,313.282 351.939,314.615 354.5,315.5C 354.5,316.833 354.5,318.167 354.5,319.5C 353.5,319.5 352.5,319.5 351.5,319.5C 348.537,319.151 346.204,320.151 344.5,322.5C 341.551,321.698 338.551,321.364 335.5,321.5C 335.5,320.167 335.5,318.833 335.5,317.5C 338.113,316.905 338.113,316.071 335.5,315C 329.222,313.812 322.888,313.312 316.5,313.5C 315.402,312.603 315.402,311.77 316.5,311C 326.342,310.175 336.009,310.342 345.5,311.5 Z"/></g>
<g><path style="opacity:1" fill="#d02022" d="M 345.5,311.5 C 345.833,311.5 346.167,311.5 346.5,311.5C 346.795,314.734 346.129,317.734 344.5,320.5C 342.775,319.985 341.108,319.318 339.5,318.5C 341.04,317.468 341.54,316.135 341,314.5C 339.184,313.671 337.351,312.837 335.5,312C 338.817,311.502 342.15,311.335 345.5,311.5 Z"/></g>
<g><path style="opacity:1" fill="#2b1b1f" d="M 319.5,315.5 C 325.098,315.156 330.432,315.822 335.5,317.5C 335.5,318.833 335.5,320.167 335.5,321.5C 338.551,321.364 341.551,321.698 344.5,322.5C 346.204,320.151 348.537,319.151 351.5,319.5C 352.5,319.5 353.5,319.5 354.5,319.5C 355.167,319.5 355.833,319.5 356.5,319.5C 356.72,324.505 357.053,329.838 357.5,335.5C 351.158,335.666 344.825,335.5 338.5,335C 342.7,333.633 347.033,333.133 351.5,333.5C 351.5,332.5 351.5,331.5 351.5,330.5C 345.657,330.722 339.99,329.889 334.5,328C 334.833,327.667 335.167,327.333 335.5,327C 334.128,326.598 332.795,326.098 331.5,325.5C 328.229,323.242 327.896,320.742 330.5,318C 330.167,317.667 329.833,317.333 329.5,317C 325.975,316.821 322.641,316.321 319.5,315.5 Z"/></g>
<g><path style="opacity:1" fill="#732225" d="M 351.5,319.5 C 351.5,321.5 351.5,323.5 351.5,325.5C 345.816,325.062 340.483,323.729 335.5,321.5C 340.483,323.729 345.816,325.062 351.5,325.5C 351.5,323.5 351.5,321.5 351.5,319.5 Z"/></g>
</svg>
